Motion_kv05_j
version=1
nRows=8
nColumns=43
inDegrees=yes
endheader
time	pelvis_tilt	pelvis_list	pelvis_rotation	pelvis_tx	pelvis_ty	pelvis_tz	hip_flexion_r	hip_adduction_r	hip_rotation_r	knee_angle_r	ankle_angle_r	subtalar_angle_r	mtp_angle_r	hip_flexion_l	hip_adduction_l	hip_rotation_l	knee_angle_l	ankle_angle_l	subtalar_angle_l	mtp_angle_l	lumbar_extension	lumbar_bending	lumbar_rotation	neck_flexion	neck_lateral_bending	neck_rotation	arm_flex_r	arm_add_r	arm_rot_r	elbow_flex_r	pro_sup_r	wrist_flex_r	wrist_dev_r	hand_finger_flex_r	arm_flex_l	arm_add_l	arm_rot_l	elbow_flex_l	pro_sup_l	wrist_flex_l	wrist_dev_l	hand_finger_flex_l
      1.55500000	      0.15865894	     13.42939936	    -89.00750794	     -0.03419053	      0.88699143	      0.64337935	    -14.10945649	     -8.16194879	    -10.76396542	    -10.91694257	     -0.40357527	     20.97364245	     41.52046931	    -14.11650825	     -9.60258444	    -10.21909935	    -10.46127909	    -12.18907457	     32.55485606	     58.08912252	    -12.00351471	      0.93077114	      2.11820409	    -22.64617488	     -2.91053160	      6.18806641	      8.92524146	    -42.15444689	     -0.37997177	    105.42517620	    155.42055162	     -5.79221116	     -7.20434823	      7.62565137	     17.03684313	    -41.96602283	     11.21133770	     96.42052133	    152.87451371	    -24.77442434	     -4.86104131	     20.31820424
      1.55750000	      0.11537512	     13.38408200	    -89.00539234	     -0.03430072	      0.88681747	      0.64388001	    -14.15023596	     -8.12747390	    -10.75400584	    -10.98489616	     -0.52410723	     21.00022155	     41.56296234	    -14.23361385	     -9.66228259	    -10.28406617	    -10.42494428	    -12.26900380	     32.59318120	     58.14112494	    -12.05307023	      0.93248381	      2.10380022	    -22.71085879	     -2.73367700	      5.29124106	      8.79229116	    -42.15846048	     -0.46365062	    105.56303983	    155.41148557	     -5.67611298	     -7.20745711	      7.72652038	     16.73355947	    -42.09763007	     10.99698075	     96.78988059	    152.89058109	    -24.78303239	     -4.91373487	     20.47081378
      1.56000000	      0.11456725	     13.38489070	    -89.00620103	     -0.03431702	      0.88678260	      0.64394152	    -14.14988824	     -8.12738776	    -10.75411332	    -10.98441553	     -0.52407831	     21.00025429	     41.56305300	    -14.23322134	     -9.66207980	    -10.28425273	    -10.42457224	    -12.26901941	     32.59327309	     58.14122061	    -12.05480359	      0.93227002	      2.10287659	    -22.71046810	     -2.73408206	      5.29047578	      8.79168832	    -42.15829544	     -0.46338686	    105.56273119	    155.41148349	     -5.67577577	     -7.20747709	      7.72673137	     16.73369484	    -42.09706437	     10.99676951	     96.78951703	    152.89060988	    -24.78276861	     -4.91364787	     20.47109711
      1.56250000	      0.11279802	     13.38638796	    -89.00824794	     -0.03433935	      0.88677360	      0.64400607	    -14.14936106	     -8.12756391	    -10.75421908	    -10.98385899	     -0.52408053	     21.00032444	     41.56317903	    -14.23298722	     -9.66208257	    -10.28448152	    -10.42429448	    -12.26907621	     32.59336466	     58.14135156	    -12.05747030	      0.93185227	      2.10048811	    -22.71002059	     -2.73438450	      5.28892383	      8.78985157	    -42.15823037	     -0.46274389	    105.56232078	    155.41145802	     -5.67518571	     -7.20756803	      7.72709984	     16.73328360	    -42.09650481	     10.99656538	     96.78889703	    152.89065430	    -24.78234544	     -4.91353023	     20.47154532
      1.56500000	      0.05921377	     13.35888293	    -89.00199325	     -0.03439278	      0.88676985	      0.64430285	    -14.24469263	     -8.06280870	    -10.79404230	    -10.86138366	     -0.61470628	     21.08826628	     41.66346987	    -14.32383968	     -9.71973267	    -10.47853390	    -10.34604315	    -12.36778224	     32.64009976	     58.24227478	    -12.13719558	      0.97447277	      2.08555184	    -22.39175161	     -2.88383532	      3.90277405	      8.68769808	    -42.15985235	     -0.58628590	    105.73162749	    155.37076116	     -5.32728452	     -7.24838308	      8.01135296	     16.42410974	    -41.95449358	     10.57252921	     96.99255224	    152.91659471	    -24.59217737	     -4.89201378	     20.83972012
      1.56750000	      0.05915659	     13.35913079	    -89.00207932	     -0.03441611	      0.88676361	      0.64435701	    -14.24441467	     -8.06324312	    -10.79404060	    -10.86132095	     -0.61473969	     21.08827482	     41.66351252	    -14.32362775	     -9.71971278	    -10.47851980	    -10.34603235	    -12.36780590	     32.64016236	     58.24232513	    -12.13808830	      0.97498808	      2.08540230	    -22.39189872	     -2.88395043	      3.90270885	      8.68732963	    -42.15993810	     -0.58606799	    105.73164853	    155.37074949	     -5.32713853	     -7.24843578	      8.01146650	     16.42418209	    -41.95453164	     10.57247296	     96.99260578	    152.91664518	    -24.59205897	     -4.89205895	     20.83987996
      1.57000000	      0.05804682	     13.36037650	    -89.00408797	     -0.03444684	      0.88675903	      0.64441831	    -14.24396231	     -8.06426583	    -10.79397449	    -10.86139958	     -0.61489126	     21.08834221	     41.66363536	    -14.32341075	     -9.72001967	    -10.47845551	    -10.34628583	    -12.36792283	     32.64029703	     58.24246706	    -12.14097218	      0.97579573	      2.08332597	    -22.39241017	     -2.88410066	      3.90202504	      8.68467390	    -42.16039610	     -0.58493608	    105.73159472	    155.37068856	     -5.32652007	     -7.24865704	      8.01190175	     16.42354549	    -41.95485479	     10.57252173	     96.99240183	    152.91680172	    -24.59158695	     -4.89217647	     20.84042137
      1.57250000	     -0.02160910	     13.25197841	    -89.04858621	     -0.03477895	      0.88682614	      0.64487390	    -14.34095181	     -7.99254955	    -10.76177587	    -10.90361403	     -0.77160872	     21.22890184	     41.81392538	    -14.46850709	     -9.82204354	    -10.60497088	    -10.38521565	    -12.42867247	     32.72022792	     58.40535868	    -12.27523354	      1.02523940	      2.14154293	    -22.39102485	     -3.02868973	      2.96262746	      8.55899505	    -42.13834641	     -0.70579159	    105.95151987	    155.28973923	     -4.81468361	     -7.26708342	      8.48830612	     16.17101455	    -41.95494964	     10.23837910	     97.26006365	    153.03885894	    -24.18361859	     -4.98054554	     21.46372490
